<?xml version='1.0' encoding='UTF-8'?>
<svg xmlns="http://www.w3.org/2000/svg" viewBox="0 0 118.67893 113.93676">
  <title>Recurso 1check</title>
  <g id="Capa_2" data-name="Capa 2">
    <g id="Capa_1-2" data-name="Capa 1">
      <path d="M105.97645,4.89107A308.59208,308.59208,0,0,0,79.66689,36.30064,443.78521,443.78521,0,0,0,45.424,89.99238a4.18931,4.18931,0,0,1-6.47619,1.13333A214.38292,214.38292,0,0,0,11.12038,71.13045C-.29392,65.059-3.957,72.14235,5.04894,79.89356c4.49287,3.84524,18.4774,15.6643,22.26194,19.89408a76.13264,76.13264,0,0,1,6.82024,8.56073,11.45477,11.45477,0,0,0,9.75479,5.58572h0a13.98452,13.98452,0,0,0,11.981-6.33452L73.51452,80.50072C80.69906,69.20785,87.8836,57.95545,94.805,46.56138l21.12861-34C122.89552,1.26845,115.52885-4.92442,105.97645,4.89107Z" fill="#fff"></path>
    </g>
  </g>
</svg>