<?xml version='1.0' encoding='UTF-8'?>
<svg id="PriceAdvisor" width="100%" height="100%" viewBox="0 0 360 380" font-family="'Open Sans', sans-serif" style="min-width:290px;min-height:306px;max-width:1080px;max-height:1350px"
  xmlns="http://www.w3.org/2000/svg" xmlns:xlink="http://www.w3.org/1999/xlink" data-reactroot="">
  <defs>
    <filter id="outerShadowFilter" x="-100%" y="-100%" width="400%" height="400%">
      <feOffset in="SourceAlpha" dx="1" dy="1" result="offset"></feOffset>
      <feGaussianBlur in="offset" stdDeviation="4" result="blur"></feGaussianBlur>
      <feComponentTransfer in="blur" result="faded">
        <feFuncA type="linear" slope="0.9"></feFuncA>
      </feComponentTransfer>
      <feMerge>
        <feMergeNode in="faded"></feMergeNode>
        <feMergeNode in="SourceGraphic"></feMergeNode>
      </feMerge>
    </filter>
    <filter id="pieShadowFilter" x="-100%" y="-100%" width="400%" height="400%" filterUnits="objectBoundingBox">
      <feOffset in="SourceAlpha" dx="1" dy="1" result="offset"></feOffset>
      <feGaussianBlur in="offset" stdDeviation="4" result="blur"></feGaussianBlur>
      <feComposite in="blur" in2="SourceAlpha" operator="out" result="blur"></feComposite>
      <feColorMatrix values="0 0 0 0  0 0 0 0  0 0 0 0  0 0 0 0  0 0 1 0" in="blur"></feColorMatrix>
    </filter>
    <filter id="pointShadowFilter" x="-100%" y="-100%" width="400%" height="400%" filterUnits="objectBoundingBox">
      <feOffset dx="1" dy="1" in="SourceAlpha" result="offset"></feOffset>
      <feGaussianBlur stdDeviation="4" in="offset" result="blur"></feGaussianBlur>
      <feColorMatrix values="0 0 0 0 0   0 0 0 0 0   0 0 0 0 0  0 0 0 1 0" type="matrix" in="blur" result="matrix"></feColorMatrix>
      <feMerge>
        <feMergeNode in="matrix"></feMergeNode>
        <feMergeNode in="SourceGraphic"></feMergeNode>
      </feMerge>
    </filter>
    <g id="pointSurround">
      <circle r="8" fill="url(#pointSurroundGradient)"></circle>
      <circle r="5.5" fill="url(#pointSurroundInnerBevelGradient)"></circle>
    </g>
    <linearGradient id="pointSurroundGradient" x1="100%" y1="100%" x2="0%" y2="0%">
      <stop offset="0%" stop-color="#AAAAAA"></stop>
      <stop offset="100%" stop-color="#DDDDDD"></stop>
    </linearGradient>
    <linearGradient id="pointSurroundInnerBevelGradient" x1="100%" y1="100%" x2="0%" y2="0%">
      <stop offset="0%" stop-color="#DDDDDD"></stop>
      <stop offset="100%" stop-color="#5E5E5E"></stop>
    </linearGradient>
    <g id="pointSurroundLarge">
      <circle r="12" fill="url(#pointSurroundGradient)"></circle>
      <circle r="7.8" fill="url(#pointSurroundInnerBevelGradient)"></circle>
    </g>
    <radialGradient id="grayGradient" cx="100%" cy="100%" fx="100%" fy="100%" r="100%" spreadMethod="pad">
      <stop offset="40%" stop-color="#F0F2F4" stop-opacity="1"></stop>
      <stop offset="90%" stop-color="#F0F2F4" stop-opacity="1"></stop>
    </radialGradient>
    <linearGradient id="pointGreen" x1="0%" y1="0%" x2="100%" y2="100%">
      <stop offset="0%" stop-color="#229309"></stop>
      <stop offset="100%" stop-color="#1C6908"></stop>
    </linearGradient>
    <linearGradient id="pointOrange" x1="0%" y1="0%" x2="100%" y2="100%">
      <stop offset="0%" stop-color="#FE7405"></stop>
      <stop offset="100%" stop-color="#FE7405"></stop>
    </linearGradient>
    <linearGradient id="pointGray" x1="0%" y1="0%" x2="100%" y2="100%">
      <stop offset="0%" stop-color="#AAAAAA"></stop>
      <stop offset="100%" stop-color="#444444"></stop>
    </linearGradient>
  </defs>
  <g>
    <g id="RangeBox" transform="translate(117,113)">
      <path d="m 0,-40 l -87,0 l 0,-42 a 5,5 0 0,1 5,-5 l 164,0 a 5,5 0 0,1 5,5 l 0,42 z" fill="#559c56" stroke="#9BA6B3"
        stroke-width="1"></path>
      <path d="m 0,0 l -82,0 a 5,5 0 0,1 -5,-5 l 0,-35 l 174,0 l 0,35 a 5,5 0 0,1 -5,5 z" fill="#ffffff" stroke="#9BA6B3"
        stroke-width="1"></path>
      <text text-anchor="middle" font-size="14" font-weight="700" fill="#333333" y="-8">$17,378</text>
      <text text-anchor="middle" font-size="14" font-weight="400" fill="#333333" y="-26">Fair Purchase Price</text>
      <text text-anchor="middle" font-size="20" font-weight="700" fill="#ffffff" y="-48">$15,931 - $18,824</text>
      <text text-anchor="middle" font-size="14" font-weight="400" fill="#ffffff" y="-68.8">Fair Market Range</text>
    </g>
    <g id="listingPriceBox" transform="translate(277,113)">
      <path d="m0,0 l-53,0 a5,5 0 0,1 -5,-5 l0,-60 a5,5 0 0,1 5,-5 l106,0 a 5,5 0 0,1 5,5 l0,60 a5,5 0 0,1 -5,5 z" fill="#ffffff"
        stroke="#9BA6B3" stroke-width="1"></path>
      <text text-anchor="middle" font-size="14" font-weight="700" fill="#333333" y="-10">$17,865</text>
      <text text-anchor="middle" font-size="14" font-weight="400" fill="#333333" y="-30">Listing Price</text>
      <text text-anchor="middle" font-size="14" font-weight="400" fill="#333333" y="-47">Typical</text>
    </g>
  </g>
  <path d="M 50,300 A 130,130 0 0,1 310,300 z" fill="url(#grayGradient)" filter="url(#outerShadowFilter)"></path>
  <path d="M 180,300 L 310.4,300 A 130.4,130.4 0 0,0 245.20000000000002,187.0702873465092 z" fill="#D12222"></path>
  <g>
    <path d="M 180,300 L 102.00000000000003,164.90003700962757 A 156,156 0 0,1 258,164.90003700962757 z" fill="black"
      fill-opacity="1" filter="url(#pieShadowFilter)"></path>
    <path d="M 180,300 L 102.00000000000003,164.90003700962757 A 156,156 0 0,1 258,164.90003700962757 z" fill="#127712"
      fill-opacity="0.7" fill-rule="even-odd"></path>
  </g>

  <g>
    <path d="M 117,113 l 0,15 l 63.028234154354465,0 L 180.02823415435446,144.00000255502397 " stroke="#9BA6B3" fill="none"></path>
    <path d="M 277,113 l 0,25 l -74.17862166371162,0 L 202.82137833628838,172.01881118370565 " stroke="#9BA6B3" fill="none"></path>
  </g>
  <g>
    <g transform="translate(180.02823415435446,144.00000255502397)" filter="url(#pointShadowFilter)">
      <use xlink:href="#pointSurroundLarge"></use>
      <circle r="5.5" fill="url(#pointGreen)"></circle>
    </g>
    <g transform="translate(202.82137833628838,172.01881118370565)" filter="url(#pointShadowFilter)">
      <use xlink:href="#pointSurround"></use>
      <circle r="4" fill="url(#pointGray)"></circle>
    </g>
  </g>
</svg>
