<?xml version="1.0" encoding="utf-8"?>
<svg version="1.1" xmlns:xlink="http://www.w3.org/1999/xlink" width="28px" height="28px" xmlns="http://www.w3.org/2000/svg">
  <g transform="matrix(1 0 0 1 -44 -437 )">
    <path d="M 20.5989583333333 16.37890625  C 20.7447916666667 16.6644965277778  20.7690972222222 16.9592013888889  20.671875 17.2630208333333  C 20.2222222222222 18.7335069444444  19.3836805555556 19.9184027777778  18.15625 20.8177083333333  C 16.9288194444444 21.7170138888889  15.5434027777778 22.1666666666667  14 22.1666666666667  C 12.4565972222222 22.1666666666667  11.0711805555556 21.7170138888889  9.84375 20.8177083333333  C 8.61631944444444 19.9184027777778  7.77777777777778 18.7335069444444  7.328125 17.2630208333333  C 7.23090277777778 16.9592013888889  7.25520833333333 16.6644965277778  7.40104166666667 16.37890625  C 7.546875 16.0933159722222  7.77777777777778 15.9019097222222  8.09375 15.8046875  C 8.39756944444444 15.7074652777778  8.69227430555556 15.7317708333333  8.97786458333333 15.8776041666667  C 9.26345486111111 16.0234375  9.45486111111111 16.2543402777778  9.55208333333333 16.5703125  C 9.85590277777778 17.5425347222222  10.41796875 18.3294270833333  11.23828125 18.9309895833333  C 12.05859375 19.5325520833333  12.9791666666667 19.8333333333333  14 19.8333333333333  C 15.0208333333333 19.8333333333333  15.94140625 19.5325520833333  16.76171875 18.9309895833333  C 17.58203125 18.3294270833333  18.1440972222222 17.5425347222222  18.4479166666667 16.5703125  C 18.5451388888889 16.2543402777778  18.7395833333333 16.0234375  19.03125 15.8776041666667  C 19.3229166666667 15.7317708333333  19.6206597222222 15.7074652777778  19.9244791666667 15.8046875  C 20.2282986111111 15.9019097222222  20.453125 16.0933159722222  20.5989583333333 16.37890625  Z M 10.9830729166667 7.68359375  C 11.4388020833333 8.13932291666667  11.6666666666667 8.68923611111111  11.6666666666667 9.33333333333333  C 11.6666666666667 9.97743055555555  11.4388020833333 10.52734375  10.9830729166667 10.9830729166667  C 10.52734375 11.4388020833333  9.97743055555556 11.6666666666667  9.33333333333333 11.6666666666667  C 8.68923611111111 11.6666666666667  8.13932291666667 11.4388020833333  7.68359375 10.9830729166667  C 7.22786458333333 10.52734375  7 9.97743055555555  7 9.33333333333333  C 7 8.68923611111111  7.22786458333333 8.13932291666667  7.68359375 7.68359375  C 8.13932291666667 7.22786458333333  8.68923611111111 7  9.33333333333333 7  C 9.97743055555556 7  10.52734375 7.22786458333333  10.9830729166667 7.68359375  Z M 20.31640625 7.68359375  C 20.7721354166667 8.13932291666667  21 8.68923611111111  21 9.33333333333333  C 21 9.97743055555555  20.7721354166667 10.52734375  20.31640625 10.9830729166667  C 19.8606770833333 11.4388020833333  19.3107638888889 11.6666666666667  18.6666666666667 11.6666666666667  C 18.0225694444444 11.6666666666667  17.47265625 11.4388020833333  17.0169270833333 10.9830729166667  C 16.5611979166667 10.52734375  16.3333333333333 9.97743055555555  16.3333333333333 9.33333333333333  C 16.3333333333333 8.68923611111111  16.5611979166667 8.13932291666667  17.0169270833333 7.68359375  C 17.47265625 7.22786458333333  18.0225694444444 7  18.6666666666667 7  C 19.3107638888889 7  19.8606770833333 7.22786458333333  20.31640625 7.68359375  Z M 24.7369791666667 18.5299479166667  C 25.3567708333333 17.08984375  25.6666666666667 15.5798611111111  25.6666666666667 14  C 25.6666666666667 12.4201388888889  25.3567708333333 10.91015625  24.7369791666667 9.47005208333333  C 24.1171875 8.02994791666667  23.2877604166667 6.79036458333333  22.2486979166667 5.75130208333333  C 21.2096354166667 4.71223958333333  19.9700520833333 3.8828125  18.5299479166667 3.26302083333333  C 17.08984375 2.64322916666667  15.5798611111111 2.33333333333333  14 2.33333333333333  C 12.4201388888889 2.33333333333333  10.91015625 2.64322916666667  9.47005208333333 3.26302083333333  C 8.02994791666667 3.8828125  6.79036458333333 4.71223958333333  5.75130208333333 5.75130208333333  C 4.71223958333333 6.79036458333333  3.8828125 8.02994791666667  3.26302083333333 9.47005208333333  C 2.64322916666667 10.91015625  2.33333333333333 12.4201388888889  2.33333333333333 14  C 2.33333333333333 15.5798611111111  2.64322916666667 17.08984375  3.26302083333333 18.5299479166667  C 3.8828125 19.9700520833333  4.71223958333333 21.2096354166667  5.75130208333333 22.2486979166667  C 6.79036458333333 23.2877604166667  8.02994791666667 24.1171875  9.47005208333333 24.7369791666667  C 10.91015625 25.3567708333333  12.4201388888889 25.6666666666667  14 25.6666666666667  C 15.5798611111111 25.6666666666667  17.08984375 25.3567708333333  18.5299479166667 24.7369791666667  C 19.9700520833333 24.1171875  21.2096354166667 23.2877604166667  22.2486979166667 22.2486979166667  C 23.2877604166667 21.2096354166667  24.1171875 19.9700520833333  24.7369791666667 18.5299479166667  Z M 26.1223958333333 6.97265625  C 27.3741319444444 9.11762152777778  28 11.4600694444444  28 14  C 28 16.5399305555556  27.3741319444444 18.8823784722222  26.1223958333333 21.02734375  C 24.8706597222222 23.1723090277778  23.1723090277778 24.8706597222222  21.02734375 26.1223958333333  C 18.8823784722222 27.3741319444444  16.5399305555556 28  14 28  C 11.4600694444444 28  9.11762152777778 27.3741319444444  6.97265625 26.1223958333333  C 4.82769097222222 24.8706597222222  3.12934027777778 23.1723090277778  1.87760416666667 21.02734375  C 0.625868055555555 18.8823784722222  0 16.5399305555556  0 14  C 0 11.4600694444444  0.625868055555555 9.11762152777778  1.87760416666667 6.97265625  C 3.12934027777778 4.82769097222222  4.82769097222222 3.12934027777778  6.97265625 1.87760416666667  C 9.11762152777778 0.625868055555553  11.4600694444444 0  14 0  C 16.5399305555556 0  18.8823784722222 0.625868055555553  21.02734375 1.87760416666667  C 23.1723090277778 3.12934027777778  24.8706597222222 4.82769097222222  26.1223958333333 6.97265625  Z " fill-rule="nonzero" fill="#005092" stroke="none" transform="matrix(1 0 0 1 44 437 )" />
  </g>
</svg>