<?xml version="1.0" encoding="utf-8"?>
<svg version="1.1" xmlns:xlink="http://www.w3.org/1999/xlink" width="28px" height="20px" xmlns="http://www.w3.org/2000/svg">
  <g transform="matrix(1 0 0 1 -44 -514 )">
    <path d="M 15.3258655804481 18.9462365591398  C 14.6320434487441 19.6487455197133  14.1900882552614 20  14 20  C 13.8099117447386 20  13.3679565512559 19.6487455197133  12.6741344195519 18.9462365591398  C 11.9803122878479 18.2437275985663  11.6334012219959 17.7968936678614  11.6334012219959 17.6057347670251  C 11.6334012219959 17.299880525687  11.9304141208418 17.0418160095579  12.5244399185336 16.831541218638  C 13.1184657162254 16.621266427718  13.6103190767142 16.5161290322581  14 16.5161290322581  C 14.3896809232858 16.5161290322581  14.8815342837746 16.621266427718  15.4755600814664 16.831541218638  C 16.0695858791582 17.0418160095579  16.3665987780041 17.299880525687  16.3665987780041 17.6057347670251  C 16.3665987780041 17.7968936678614  16.0196877121521 18.2437275985663  15.3258655804481 18.9462365591398  Z M 19.1822810590631 15.0394265232975  C 18.4646978954515 15.7562724014337  18.020366598778 16.1146953405018  17.8492871690428 16.1146953405018  C 17.8302783435166 16.1146953405018  17.6401900882553 15.9952210274791  17.2790224032587 15.7562724014337  C 16.917854718262 15.5173237753883  16.4355057705363 15.2783751493429  15.8319755600815 15.0394265232975  C 15.2284453496266 14.8004778972521  14.6177868295995 14.6810035842294  14 14.6810035842294  C 13.3822131704005 14.6810035842294  12.7715546503734 14.8004778972521  12.1680244399185 15.0394265232975  C 11.5644942294637 15.2783751493429  11.0845213849287 15.5173237753883  10.7281059063136 15.7562724014337  C 10.3716904276986 15.9952210274791  10.1792260692464 16.1146953405018  10.1507128309572 16.1146953405018  C 9.979633401222 16.1146953405018  9.53530210454854 15.7562724014337  8.81771894093686 15.0394265232975  C 8.10013577732519 14.3225806451613  7.74134419551935 13.8781362007168  7.74134419551935 13.7060931899642  C 7.74134419551935 13.5818399044205  7.78886625933469 13.4719235364397  7.88391038696538 13.3763440860215  C 8.62525458248473 12.6403823178017  9.55668703326545 12.0621266427718  10.6782077393075 11.6415770609319  C 11.7997284453496 11.221027479092  12.9069925322471 11.010752688172  14 11.010752688172  C 15.0930074677529 11.010752688172  16.2002715546504 11.221027479092  17.3217922606925 11.6415770609319  C 18.4433129667346 12.0621266427718  19.3747454175153 12.6403823178017  20.1160896130346 13.3763440860215  C 20.2111337406653 13.4719235364397  20.2586558044807 13.5818399044205  20.2586558044807 13.7060931899642  C 20.2586558044807 13.8781362007168  19.8998642226748 14.3225806451613  19.1822810590631 15.0394265232975  Z M 23.0529531568228 11.1397849462366  C 22.3401221995927 11.8566308243728  21.9029192124915 12.2150537634409  21.7413441955193 12.2150537634409  C 21.6367956551256 12.2150537634409  21.5274949083503 12.1768219832736  21.4134419551935 12.1003584229391  C 20.1208418194162 11.0967741935484  18.9232858112695 10.3584229390681  17.8207739307536 9.88530465949821  C 16.7182620502376 9.41218637992831  15.4446707399864 9.17562724014337  14 9.17562724014337  C 13.1921249151392 9.17562724014337  12.3818737270876 9.28076463560335  11.5692464358452 9.4910394265233  C 10.7566191446029 9.70131421744325  10.0485403937542 9.95459976105137  9.44501018329939 10.2508960573477  C 8.84147997284454 10.547192353644  8.30210454854039 10.8434886499403  7.82688391038697 11.1397849462366  C 7.35166327223354 11.4360812425329  6.97623896809233 11.689366786141  6.70061099796334 11.8996415770609  C 6.42498302783435 12.1099163679809  6.27766463000679 12.2150537634409  6.25865580448065 12.2150537634409  C 6.09708078750849 12.2150537634409  5.65987780040733 11.8566308243728  4.94704684317719 11.1397849462366  C 4.23421588594705 10.4229390681004  3.87780040733198 9.97849462365591  3.87780040733198 9.80645161290323  C 3.87780040733198 9.69175627240143  3.92532247114732 9.58661887694146  4.020366598778 9.4910394265233  C 5.27494908350306 8.22939068100358  6.79565512559403 7.24970131421744  8.58248472505092 6.55197132616487  C 10.3693143245078 5.8542413381123  12.1751527494908 5.50537634408602  14 5.50537634408602  C 15.8248472505092 5.50537634408602  17.6306856754922 5.8542413381123  19.4175152749491 6.55197132616487  C 21.204344874406 7.24970131421744  22.7250509164969 8.22939068100358  23.979633401222 9.4910394265233  C 24.0746775288527 9.58661887694146  24.122199592668 9.69175627240143  24.122199592668 9.80645161290323  C 24.122199592668 9.97849462365591  23.765784114053 10.4229390681004  23.0529531568228 11.1397849462366  Z M 26.9236252545825 7.25448028673835  C 26.2060420909708 7.97132616487455  25.7664630006789 8.32974910394265  25.6048879837067 8.32974910394265  C 25.500339443313 8.32974910394265  25.3957909029192 8.28673835125448  25.2912423625255 8.20071684587814  C 23.5899524779362 6.70011947431302  21.8245078071962 5.56989247311828  19.9949083503055 4.81003584229391  C 18.1653088934148 4.05017921146953  16.1670061099796 3.67025089605735  14 3.67025089605735  C 11.8329938900204 3.67025089605735  9.8346911065852 4.05017921146953  8.0050916496945 4.81003584229391  C 6.1754921928038 5.56989247311828  4.41004752206382 6.70011947431302  2.70875763747454 8.20071684587814  C 2.60420909708079 8.28673835125448  2.49966055668703 8.32974910394265  2.39511201629328 8.32974910394265  C 2.23353699932111 8.32974910394265  1.79395790902919 7.97132616487455  1.07637474541752 7.25448028673835  C 0.358791581805838 6.53763440860215  0 6.09318996415771  0 5.92114695340502  C 0 5.79689366786141  0.0475220638153429 5.68697729988052  0.142566191446029 5.59139784946237  C 1.91989137813985 3.81362007168459  4.03462321792261 2.43727598566308  6.4867617107943 1.46236559139785  C 8.93890020366599 0.487455197132616  11.4433129667346 0  14 0  C 16.5566870332654 0  19.061099796334 0.487455197132616  21.5132382892057 1.46236559139785  C 23.9653767820774 2.43727598566308  26.0801086218602 3.81362007168459  27.857433808554 5.59139784946237  C 27.9524779361847 5.68697729988052  28 5.79689366786141  28 5.92114695340502  C 28 6.09318996415771  27.6412084181942 6.53763440860215  26.9236252545825 7.25448028673835  Z " fill-rule="nonzero" fill="#005092" stroke="none" transform="matrix(1 0 0 1 44 514 )" />
  </g>
</svg>