<?xml version="1.0" encoding="utf-8"?>
<svg version="1.1" xmlns:xlink="http://www.w3.org/1999/xlink" width="20px" height="31px" xmlns="http://www.w3.org/2000/svg">
  <g transform="matrix(1 0 0 1 -49 -293 )">
    <path d="M 13.642578125 7.22526041666667  C 14.130859375 7.73654513888889  14.375 8.34201388888889  14.375 9.04166666666667  C 14.375 9.21657986111111  14.3131510416667 9.36794704861111  14.189453125 9.49576822916667  C 14.0657552083333 9.62358940972222  13.9192708333333 9.6875  13.75 9.6875  C 13.5807291666667 9.6875  13.4342447916667 9.62358940972222  13.310546875 9.49576822916667  C 13.1868489583333 9.36794704861111  13.125 9.21657986111111  13.125 9.04166666666667  C 13.125 8.42274305555555  12.7734375 7.94509548611111  12.0703125 7.60872395833333  C 11.3671875 7.27235243055555  10.6770833333333 7.10416666666667  10 7.10416666666667  C 9.83072916666667 7.10416666666667  9.68424479166667 7.04025607638889  9.560546875 6.91243489583333  C 9.43684895833334 6.78461371527777  9.375 6.63324652777777  9.375 6.45833333333333  C 9.375 6.28342013888889  9.43684895833334 6.13205295138889  9.560546875 6.00423177083333  C 9.68424479166667 5.87641059027777  9.83072916666667 5.8125  10 5.8125  C 10.6510416666667 5.8125  11.298828125 5.92013888888889  11.943359375 6.13541666666667  C 12.587890625 6.35069444444444  13.154296875 6.71397569444444  13.642578125 7.22526041666667  Z M 16.171875 12.6744791666667  C 17.0572916666667 11.6115451388889  17.5 10.4006076388889  17.5 9.04166666666667  C 17.5 8.07291666666667  17.275390625 7.17144097222222  16.826171875 6.33723958333333  C 16.376953125 5.50303819444444  15.791015625 4.82020399305555  15.068359375 4.28873697916667  C 14.345703125 3.75726996527777  13.544921875 3.34016927083333  12.666015625 3.03743489583333  C 11.787109375 2.73470052083333  10.8984375 2.58333333333333  10 2.58333333333333  C 9.1015625 2.58333333333333  8.212890625 2.73470052083333  7.333984375 3.03743489583333  C 6.455078125 3.34016927083333  5.654296875 3.75726996527777  4.931640625 4.28873697916667  C 4.208984375 4.82020399305555  3.623046875 5.50303819444444  3.173828125 6.33723958333333  C 2.724609375 7.17144097222222  2.5 8.07291666666667  2.5 9.04166666666667  C 2.5 10.4006076388889  2.94270833333333 11.6115451388889  3.828125 12.6744791666667  C 3.95833333333333 12.8224826388889  4.15690104166667 13.0444878472222  4.423828125 13.3404947916667  C 4.69075520833333 13.6365017361111  4.88932291666667 13.8585069444444  5.01953125 14.0065104166667  C 6.68619791666667 16.0651041666667  7.60416666666667 18.0698784722222  7.7734375 20.0208333333333  L 12.2265625 20.0208333333333  C 12.3958333333333 18.0698784722222  13.3138020833333 16.0651041666667  14.98046875 14.0065104166667  C 15.1106770833333 13.8585069444444  15.3092447916667 13.6365017361111  15.576171875 13.3404947916667  C 15.8430989583333 13.0444878472222  16.0416666666667 12.8224826388889  16.171875 12.6744791666667  Z M 19.130859375 5.31803385416667  C 19.7102864583333 6.46842447916667  20 7.70963541666667  20 9.04166666666667  C 20 11.1271701388889  19.3294270833333 12.9301215277778  17.98828125 14.4505208333333  C 17.40234375 15.1098090277778  16.9173177083333 15.6950954861111  16.533203125 16.2063802083333  C 16.1490885416667 16.7176649305556  15.76171875 17.3601345486111  15.37109375 18.1337890625  C 14.98046875 18.9074435763889  14.7591145833333 19.6306423611111  14.70703125 20.3033854166667  C 15.3190104166667 20.6801215277778  15.625 21.2317708333333  15.625 21.9583333333333  C 15.625 22.4561631944444  15.4622395833333 22.88671875  15.13671875 23.25  C 15.4622395833333 23.61328125  15.625 24.0438368055556  15.625 24.5416666666667  C 15.625 25.2413194444444  15.33203125 25.7862413194444  14.74609375 26.1764322916667  C 14.9153645833333 26.4858940972222  15 26.8020833333333  15 27.125  C 15 27.7439236111111  14.794921875 28.2215711805556  14.384765625 28.5579427083333  C 13.974609375 28.8943142361111  13.4700520833333 29.0625  12.87109375 29.0625  C 12.6106770833333 29.6545138888889  12.2200520833333 30.1254340277778  11.69921875 30.4752604166667  C 11.1783854166667 30.8250868055556  10.6119791666667 31  10 31  C 9.38802083333334 31  8.82161458333334 30.8250868055556  8.30078125 30.4752604166667  C 7.77994791666667 30.1254340277778  7.38932291666667 29.6545138888889  7.12890625 29.0625  C 6.52994791666667 29.0625  6.025390625 28.8943142361111  5.615234375 28.5579427083333  C 5.205078125 28.2215711805556  5 27.7439236111111  5 27.125  C 5 26.8020833333333  5.08463541666667 26.4858940972222  5.25390625 26.1764322916667  C 4.66796875 25.7862413194444  4.375 25.2413194444444  4.375 24.5416666666667  C 4.375 24.0438368055556  4.53776041666667 23.61328125  4.86328125 23.25  C 4.53776041666667 22.88671875  4.375 22.4561631944444  4.375 21.9583333333333  C 4.375 21.2317708333333  4.68098958333333 20.6801215277778  5.29296875 20.3033854166667  C 5.24088541666667 19.6306423611111  5.01953125 18.9074435763889  4.62890625 18.1337890625  C 4.23828125 17.3601345486111  3.85091145833333 16.7176649305556  3.466796875 16.2063802083333  C 3.08268229166667 15.6950954861111  2.59765625 15.1098090277778  2.01171875 14.4505208333333  C 0.670572916666667 12.9301215277778  0 11.1271701388889  0 9.04166666666667  C 0 7.70963541666667  0.289713541666667 6.46842447916667  0.869140625 5.31803385416667  C 1.44856770833333 4.16764322916667  2.21028645833333 3.21234809027777  3.154296875 2.4521484375  C 4.09830729166667 1.69194878472222  5.166015625 1.09320746527777  6.357421875 0.655924479166666  C 7.548828125 0.218641493055554  8.76302083333334 0  10 0  C 11.2369791666667 0  12.451171875 0.218641493055554  13.642578125 0.655924479166666  C 14.833984375 1.09320746527777  15.9016927083333 1.69194878472222  16.845703125 2.4521484375  C 17.7897135416667 3.21234809027777  18.5514322916667 4.16764322916667  19.130859375 5.31803385416667  Z " fill-rule="nonzero" fill="#005092" stroke="none" transform="matrix(1 0 0 1 49 293 )" />
  </g>
</svg>